<?xml version="1.0" encoding="UTF-8"?>
<svg id="Layer_2" data-name="Layer 2" xmlns="http://www.w3.org/2000/svg" viewBox="0 0 63.06 63">
  <defs>
    <style>
      .cls-1 {
        fill: #8a6d2d;
      }
    </style>
  </defs>
  <g id="PRINT">
    <g>
      <g>
        <path class="cls-1" d="M49.07,58.82c-3.57,0-7.31-1.78-10.53-4.99-6.76-6.75-7.94-21.65-7.98-22.28l-.08-1.13,1.13.08c.63.05,15.53,1.23,22.28,7.99,2.87,2.87,4.58,6.09,4.93,9.32.34,3.14-.64,6.04-2.78,8.17-1.86,1.86-4.27,2.85-6.96,2.85ZM32.62,32.57c.42,3.61,2.09,14.67,7.3,19.88,2.85,2.85,6.1,4.42,9.15,4.42,2.16,0,4.09-.79,5.58-2.27,1.71-1.71,2.49-4.04,2.22-6.58-.3-2.78-1.82-5.6-4.37-8.15-5.21-5.21-16.26-6.88-19.88-7.3Z"/>
        <path class="cls-1" d="M32.59,32.53l-1.13-.08c-.63-.05-15.52-1.23-22.28-7.98C3.39,18.69,2.51,11.49,7.02,6.97c1.86-1.86,4.27-2.84,6.96-2.84,3.57,0,7.31,1.77,10.54,4.99,6.75,6.75,7.93,21.65,7.98,22.28l.08,1.13ZM13.98,6.08c-2.16,0-4.09.79-5.58,2.27-3.7,3.71-2.82,9.76,2.15,14.73,5.21,5.21,16.26,6.88,19.87,7.3-.42-3.61-2.09-14.67-7.29-19.87-2.85-2.85-6.1-4.42-9.15-4.42Z"/>
      </g>
      <g>
        <path class="cls-1" d="M11.46,56.41c-1.38,0-2.58-.48-3.49-1.38-1.19-1.19-1.63-2.9-1.24-4.81.38-1.86,1.52-3.78,3.3-5.55,4.15-4.15,12.51-5.63,12.86-5.69l1.37-.24-.24,1.37c-.06.35-1.54,8.72-5.69,12.86-2.22,2.22-4.66,3.44-6.88,3.44ZM21.79,41.21c-2.49.59-7.62,2.09-10.37,4.84-1.48,1.48-2.46,3.1-2.76,4.56-.18.88-.21,2.12.71,3.03,1.57,1.57,4.84.7,7.59-2.06,2.75-2.75,4.24-7.88,4.84-10.37Z"/>
        <path class="cls-1" d="M38.8,24.21l.23-1.37c.06-.35,1.54-8.71,5.69-12.86,2.22-2.22,4.66-3.44,6.88-3.44,1.38,0,2.58.48,3.48,1.38,2.44,2.45,1.6,6.71-2.06,10.36-4.15,4.15-12.51,5.63-12.86,5.69l-1.37.24ZM51.6,8.5c-1.67,0-3.67,1.04-5.49,2.86-2.75,2.75-4.25,7.88-4.84,10.37,2.5-.59,7.62-2.09,10.37-4.84,2.8-2.8,3.66-5.99,2.06-7.6-.53-.53-1.24-.8-2.1-.8Z"/>
      </g>
      <g>
        <path class="cls-1" d="M59.64,63c-2.13,0-4.84-1.5-7.46-4.11-4.34-4.33-6.86-12.16-6.97-12.49l-.57-1.8,1.8.57c.33.11,8.16,2.63,12.49,6.97,3.91,3.91,5.19,7.9,3.17,9.92-.62.62-1.47.95-2.47.95ZM47.79,47.74c1,2.55,3.03,7.02,5.78,9.77,2.21,2.21,4.48,3.54,6.07,3.54.47,0,.84-.13,1.08-.37.98-.98.06-3.92-3.17-7.15-2.75-2.75-7.22-4.78-9.76-5.78Z"/>
        <path class="cls-1" d="M18.41,18.36l-1.8-.57c-.33-.11-8.16-2.63-12.49-6.97C.2,6.9-1.07,2.92.95.9c1.94-1.94,6.09-.66,9.93,3.17,4.33,4.33,6.86,12.16,6.96,12.49l.57,1.8ZM3.41,1.91c-.47,0-.84.13-1.08.37-.98.98-.06,3.92,3.17,7.16,2.75,2.75,7.22,4.78,9.77,5.78-1-2.55-3.03-7.02-5.77-9.77C7.28,3.23,5,1.91,3.41,1.91Z"/>
      </g>
      <g>
        <g>
          <path class="cls-1" d="M45.7,47.03c-4.93-4.92-18.31-10.02-22-6.34l-1.38-1.38c4.94-4.95,19.64,1.22,24.76,6.34l-1.38,1.38Z"/>
          <path class="cls-1" d="M23.7,40.69l-1.38-1.38c1.61-1.61,1.65-5.49.11-10.37-1.43-4.52-4.02-9.19-6.45-11.62l1.38-1.38c2.68,2.67,5.4,7.55,6.94,12.41,1.05,3.34,2.38,9.38-.59,12.35Z"/>
        </g>
        <g>
          <path class="cls-1" d="M35.29,25.47c-2.48,0-5.09-.65-6.9-1.22-4.87-1.54-9.74-4.26-12.41-6.93l1.38-1.38c2.43,2.43,7.1,5.02,11.62,6.45,4.88,1.54,8.76,1.5,10.37-.11l1.38,1.38c-1.36,1.36-3.35,1.82-5.44,1.82Z"/>
          <path class="cls-1" d="M45.7,47.03c-5.12-5.12-11.29-19.81-6.34-24.76l1.38,1.38c-3.68,3.68,1.42,17.07,6.34,22l-1.38,1.38Z"/>
        </g>
      </g>
    </g>
  </g>
</svg>